Patient4_TMGait_0pt2_02_left_13_EMG.mot
version=1
nRows=23
nColumns=33
inDegrees=no
endheader
time	1LAddLong	2LGlutMax	3LGlutMed	4LIliopsoas	5LSemiMemb	6LBicFemLong	7LRecFem	8LVastMed	9LVastLat	10LGasMed	11LTibAnt	12lTibPost	13LPeroneusLong	14LSol	15LExtDigLong	16LFlexDigLong	17RAddLong	18RGlutMax	19RGlutMed	20RIliopsoas	21RSemiMemb	22RBicFemLong	23RRecFem	24RVastMed	25RVastLat	26RGasMed	27RTibAnt	28RTibPost	29RPeroneusLong	30RSol	31RExtDigLong	32RFlexDigLong
30.53	-0.005798	0.07019	0.019531	0.000458	-0.017395	-0.16007	0.063171	-0.007172	-0.029602	-0.022125	0.093231	-0.006256	0.092316	0.011597	0.051727	0.024567	0.018616	0.15732	0.61691	0.07019	-0.001831	-0.005798	0.058899	-0.056458	0.014038	-0.000916	0.022278	-0.005646	-0.22919	-0.12299	0.007477	-0.002289
30.531	-0.005188	-0.004425	-0.05188	0.000763	-0.031738	-0.077209	0.009766	-0.005341	0.018616	-0.02655	-0.16342	-0.016937	0.1326	0.066833	-0.52612	0.022736	0.030975	0.15839	0.3038	0.009155	-0.005493	0.021973	0.091705	-0.02243	0.004883	-0.000458	0.032959	0.002747	-0.10559	-0.11047	0.000305	-0.003052
30.532	-0.001678	-0.002899	-0.030823	0.039673	-0.005035	-0.009918	-0.056763	0.004272	0.05249	0.008392	-0.015411	0.002441	-0.014343	0.10574	-0.083618	0.002289	0.018921	0.20111	0.31021	-0.028687	0.001831	0.031281	0.10757	-0.056458	0.019379	-0.001831	0.032043	-0.00351	-0.074005	-0.11231	0	-0.00885
30.533	-0.009613	0.028839	-0.040283	0.015411	0.019226	0.054321	-0.033112	0.015106	0.065155	0.021057	0.077972	-0.004272	-0.085297	0.096436	0.66009	0.012665	0.017395	0.15182	-0.001221	-0.02182	0.000305	0.018616	0.063782	-0.047607	0.023041	-0.001678	0.028229	0.002441	-0.025482	-0.007324	-0.00061	-0.007172
30.534	0.005341	0.008545	0.067749	-0.008392	0.048523	0.12741	-0.0383	0.016022	0.10437	0.016785	0.036316	0.006714	-0.096893	0.16174	-0.2536	0.000458	-0.007629	0.17395	-0.2562	-0.059967	0.001526	0.019836	0.059814	-0.054474	0.018158	-0.006714	0.029602	-0.005493	-0.081024	-0.046387	0.00061	-0.005646
30.535	0.004425	0.006714	0.14084	-0.021057	0.039215	0.19226	-0.066986	0.017242	0.13519	-0.01358	-0.026855	0.00412	-0.000916	0.10254	-0.33981	-0.003815	-0.017242	0.17364	0.089111	-0.077972	0.006714	0.037994	0.06958	-0.039673	0.020752	-0.006409	0.038452	-0.003967	-0.017242	-0.095673	0.00061	-0.014954
30.536	0.003204	0.016022	0.015564	-0.016174	-0.012207	0.24323	-0.04837	-0.002289	0.099792	-0.036316	0.057526	-0.003357	0.092316	0.071869	-0.51727	-0.020294	-0.016174	0.1471	0.23666	-0.059662	0	0.017242	0.056915	-0.055542	0.022125	-0.004883	0.038452	-0.008698	0.090332	-0.083923	0.003204	-0.012512
30.537	-0.014038	-0.001678	-0.019836	-0.00412	-0.063629	0.22781	0.019989	-0.003662	-0.007629	0.001984	0.0737	0.016937	0.029755	0.070343	-0.47806	-0.013885	-0.019226	0.21149	0.062866	0.022736	-0.000916	0.029449	0.091858	-0.030975	0.033264	-0.007629	0.031891	-0.006409	0.41138	-0.007935	0.004578	-0.013428
30.538	-0.006714	0.020752	0.020905	0.004272	-0.067139	0.20172	0.009918	-0.010834	-0.031128	-0.002136	0.20706	-0.006866	-0.028381	-0.003204	-0.38925	-0.012665	-0.024261	0.17944	-0.25528	0.17181	-0.000153	0.017242	0.054779	-0.018158	0.033264	-0.006409	0.035095	-0.005646	0.61905	-0.002899	0.004425	-0.013123
30.539	0.025177	0.035248	0.093536	0.014954	-0.052185	0.1712	0.026093	-0.034637	0.006714	0.035706	0.13245	0.004578	-0.041809	-0.023499	-0.40131	-0.012054	-0.028076	0.10452	-0.46555	0.13107	-0.011902	0.018158	0.050812	-0.049591	0.023346	-0.00473	0.059357	-0.008087	0.76126	-0.064392	0.001831	-0.011597
30.54	-0.086517	0.020905	0.06546	0.021362	0.023193	0.15839	0.034637	-0.015106	0.014191	0.015259	-0.070953	-0.00473	-0.058136	-0.04364	-0.17868	0.003204	-0.01236	0.095062	-0.31189	0.053711	-0.011597	0.018005	0.037231	-0.03006	0.0354	-0.002747	0.057068	-0.009918	0.4538	-0.071869	0.00061	-0.00885
30.541	0.028992	0.028381	0.13107	0.021667	0.067749	0.014648	0.012512	-0.014496	0.004425	-0.018768	-0.3273	0.000458	0.006409	-0.11765	-0.20325	0.003052	-0.004425	0.10941	-0.14877	-0.044098	-0.007629	0.014954	0.062866	0.012054	0.016479	0.000305	0.010986	-0.011444	-0.59891	-0.10101	-0.005035	-0.011292
30.542	0.016479	0.062103	0.12833	0.017395	0.036774	-0.35278	-0.007935	-0.012665	0.005188	-0.014801	-0.26398	-0.007782	0.022736	-0.11459	-0.1059	-0.007629	0.002899	0.037079	0.006714	-0.034332	-0.017395	0.009613	0.12299	0.004272	0.028534	0.007172	0.048828	-0.005646	-1.3493	-0.09903	0.000153	-0.01297
30.543	-0.005188	0.085602	0.054169	0.00412	-0.024109	-0.2684	-0.007782	-0.002136	-0.002289	0.012512	-0.077515	-0.007629	0.017242	-0.11261	0.064087	-0.000153	0.013428	0.069275	0.19257	-0.018463	-0.01709	0.005341	0.12528	-0.003662	0.022125	0.014343	0.056305	-0.001984	-1.8559	-0.083466	0.000916	-0.009766
30.544	-0.009308	0.10941	-0.001984	0.003967	-0.072784	-0.13428	-0.018158	-0.002899	0.004425	0.009003	0.054779	0.007172	0.011902	-0.12421	0.24048	-0.003357	0.007629	0.042725	0.34134	0.004272	-0.011292	0.020294	0.16754	-0.048065	0.038452	0.014038	0.072937	-0.012054	-1.3461	0.041046	0.001526	-0.010681
30.545	0.011749	0.11658	0.043182	-0.007935	-0.053864	-0.036926	-0.032959	-0.003967	0.027161	-0.028534	0.051727	-0.00351	0.006714	-0.12634	0.51392	0.016479	0.016174	0.062866	0.10574	-0.001678	-0.019989	0.023651	0.13534	-0.057373	0.01709	0.016327	-0.027466	-0.032043	-0.24246	0.13794	0.001678	-0.009918
30.546	0.024719	0.13306	0.074921	0.003204	-0.035553	0.065308	-0.026398	-0.004272	0.005646	-0.038757	0.011139	0.000458	0.027313	-0.13046	0.27756	0.011292	0.00351	0.092468	0.070801	-0.1828	-0.015259	0.023804	0.12573	-0.075378	-0.022888	-0.00412	0.061188	-0.12894	-0.37582	0.12161	-0.001678	-0.002136
30.547	0.024109	0.14572	0.027924	0.008545	0.039673	0.087891	-0.018616	-0.00351	0.0177	-0.003967	-0.06546	0.006866	-0.013275	-0.14771	0.009155	0.010529	0.000916	0.10315	-0.18158	-0.32257	-0.024109	0.031128	-0.005798	-0.088806	0.007782	-0.018616	0.033875	-0.20035	1.0307	0.14008	-0.000305	-0.011902
30.548	0.023193	0.099335	0.014191	-0.00351	0.073853	0.14206	0.014801	0	0.044403	0.009613	-0.088348	0.001831	-0.040741	-0.13977	-0.098724	0.014343	0.001373	0.037994	-0.32776	-0.084229	-0.00946	0.018768	-0.037079	-0.096893	0.008698	-0.01709	0.002136	0.16632	0.94955	0.095978	0.00061	-0.009918
30.549	0.012817	0.10132	0.038757	0.016022	0.030975	0.19333	0.029449	0.006409	0.018616	0.003967	-0.075073	0.001831	0.009003	-0.11932	0.077515	0.01358	0.014191	0.028839	-0.29587	0.32394	-0.007629	0.007935	-0.08194	-0.05249	-0.010529	-0.020447	-0.082703	-0.02243	1.4238	0.016479	0.000763	-0.019379
30.55	0.005188	0.030975	0.059509	0.008087	0.007324	0.22049	0.069885	0.003204	0.004883	0.00412	-0.063324	0.011292	0.02594	-0.11063	0.16769	0.00061	-0.005493	0.054016	-0.21088	0.35919	-0.013275	-0.009155	-0.039978	-0.025635	0.028076	-0.02533	-0.075684	-0.044098	0.54855	0.11444	0.001831	-0.007477
30.551	0.003815	-0.009155	-0.018768	0.027618	-0.014191	0.16235	0.018005	0.010071	0.012207	-0.003204	-0.063477	-0.00412	-0.01709	-0.07309	0.26306	0.010834	0.000305	0.063171	-0.19882	0.36163	-0.01236	0.015564	0.051422	0.004272	0.032349	-0.033875	-0.045471	0.088043	0.6102	-0.015106	-0.001221	-0.016937
30.552	-0.006561	-0.062561	-0.041962	0.015717	0.02533	0.065155	0.016174	0.006409	0.005188	-0.000763	-0.015869	0.013123	-0.033875	-0.05722	0.24597	0.008087	-0.005341	0.072784	-0.10147	0.22232	-0.01358	0.0177	0.07309	-0.041199	0.012512	-0.015717	-0.046539	0.12131	0.10346	-0.48065	0.003204	-0.027771
